<svg xmlns="http://www.w3.org/2000/svg" width="206.105" height="206.105" viewBox="0 0 206.105 206.105">
  <g id="np_speed_12193_000000" transform="translate(0.5 0.554)" opacity="0.043">
    <path id="Path_19160" data-name="Path 19160" d="M104.258,62.946a5.5,5.5,0,0,0-3.478-3.469l-58.216-19.4A5.5,5.5,0,0,0,36.94,41.4l-19.4,19.412a5.487,5.487,0,0,0,2.144,9.082L75.3,88.429l18.535,55.635a5.493,5.493,0,0,0,3.945,3.6,5.183,5.183,0,0,0,1.267.152,5.491,5.491,0,0,0,3.879-1.611l19.422-19.4a5.5,5.5,0,0,0,1.325-5.623Zm-2.821,69.2-16.591-49.8a5.546,5.546,0,0,0-3.478-3.469L31.575,62.288l10.73-10.73L94.7,69.026l17.478,52.4Z" transform="translate(3.482 37.831)" fill="#6be3fa" stroke="#fff" stroke-width="1"/>
    <path id="Path_19161" data-name="Path 19161" d="M120.17,47.041a5.546,5.546,0,0,0-3.469-3.478L58.474,24.16a5.534,5.534,0,0,0-5.613,1.334L33.44,44.9a5.487,5.487,0,0,0,2.144,9.082L91.22,72.514l18.535,55.616a5.472,5.472,0,0,0,3.945,3.612,5.745,5.745,0,0,0,1.267.143,5.491,5.491,0,0,0,3.888-1.611l19.4-19.4a5.5,5.5,0,0,0,1.325-5.623Zm-2.811,69.195L100.767,66.443A5.553,5.553,0,0,0,97.3,62.975l-49.8-16.6,10.73-10.721,52.4,17.458,17.458,52.4Z" transform="translate(26.375 14.932)" fill="#6be3fa" stroke="#fff" stroke-width="1"/>
    <path id="Path_19162" data-name="Path 19162" d="M136.083,31.135a5.517,5.517,0,0,0-3.478-3.478L74.388,8.254a5.531,5.531,0,0,0-5.623,1.325l-19.4,19.412a5.486,5.486,0,0,0,2.144,9.091l55.616,18.535,18.535,55.616a5.521,5.521,0,0,0,3.955,3.612,5.661,5.661,0,0,0,1.258.143,5.451,5.451,0,0,0,3.878-1.611l19.4-19.4a5.486,5.486,0,0,0,1.334-5.623Zm-2.811,69.195-16.61-49.793a5.546,5.546,0,0,0-3.469-3.478L63.4,30.458l10.73-10.73,52.4,17.468,17.458,52.4Z" transform="translate(49.286 -7.976)" fill="#6be3fa" stroke="#fff" stroke-width="1"/>
    <path id="Path_19163" data-name="Path 19163" d="M75.566,65.269a5.493,5.493,0,0,0-7.767,0L9.582,123.486a5.5,5.5,0,0,0,7.777,7.767L75.566,73.016a5.47,5.47,0,0,0,0-7.748Z" transform="translate(-7.974 72.188)" fill="#6be3fa" stroke="#fff" stroke-width="1"/>
    <path id="Path_19164" data-name="Path 19164" d="M21.32,88.459l19.4-19.4a5.489,5.489,0,0,0-7.757-7.767l-19.4,19.4a5.488,5.488,0,1,0,7.757,7.767Z" transform="translate(-2.245 66.459)" fill="#6be3fa" stroke="#fff" stroke-width="1"/>
    <path id="Path_19165" data-name="Path 19165" d="M48.875,77.194l-19.4,19.422a5.485,5.485,0,1,0,7.757,7.757l19.422-19.4a5.5,5.5,0,0,0-7.776-7.776Z" transform="translate(20.66 89.358)" fill="#6be3fa" stroke="#fff" stroke-width="1"/>
  </g>
</svg>
